<svg version="1.0" xmlns="http://www.w3.org/2000/svg" width="700pt" height="700pt" viewBox="0 0 700 700"><g transform="translate(0.000000,700.000000) scale(0.100000,-0.100000)" fill="#000" stroke="none"><path d="M1016 6985c-47-17-91-57-119-110l-21-40V35e2c0-3205 1-3336 18-3370 32-61 77-1e2 134-116 117-34 229 20 273 132 8 21 11 419 11 1397l1 1368 36 15c48 20 430 147 506 169 33 9 71 21 85 25 26 9 102 30 132 35 9 2 43 11 75 19 61 16 167 41 218 51 17 3 41 8 55 10 46 9 75 14 125 21 28 3 71 9 96 13 69 11 304 11 384 0 144-21 295-67 575-176 322-126 379-146 538-188 243-64 536-77 787-35 33 6 83 13 110 16 28 4 53 8 58 11 4 2 17 6 30 8 206 36 525 122 867 235 102 33 194 65 205 69 11 5 65 26 120 46 55 21 119 48 143 62 48 28 87 83 98 139 13 69 8 3343-5 3391-17 62-68 114-116 119-186 18-168 20-325-39-377-142-768-257-1065-312-49-10-97-18-105-20s-37-6-65-10c-27-3-66-9-85-11-61-9-286-11-342-3-111 15-144 20-160 25-9 3-26 7-38 9-28 5-159 44-185 55-11 5-54 21-95 35-41 15-88 33-105 41-307 134-622 229-835 253-83 9-369 7-440-4-307-46-501-89-804-176-115-33-414-128-463-146-8-3-11 19-11 79 0 101-17 148-72 199-59 55-146 72-224 44z"/></g></svg>